<?xml version="1.0" standalone="no"?>
<!DOCTYPE svg PUBLIC "-//W3C//DTD SVG 20010904//EN"
 "http://www.w3.org/TR/2001/REC-SVG-20010904/DTD/svg10.dtd">
<svg version="1.0" xmlns="http://www.w3.org/2000/svg"
 width="700.000000pt" height="700.000000pt" viewBox="0 0 700.000000 700.000000"
 preserveAspectRatio="xMidYMid meet">
<metadata>
Created by potrace 1.14, written by Peter Selinger 2001-2017
</metadata>
<g transform="translate(0.000000,700.000000) scale(0.100000,-0.100000)"
fill="#000000" stroke="none">
<path d="M3546 6763 c-4 -4 -35 -8 -69 -10 -95 -3 -197 -11 -252 -19 -27 -4
-60 -7 -72 -7 -13 0 -23 -3 -23 -7 0 -4 -16 -7 -35 -8 -20 -1 -55 -7 -78 -13
-61 -16 -89 -22 -114 -23 -13 -1 -23 -3 -23 -6 0 -3 -10 -6 -22 -7 -11 -1 -24
-7 -28 -13 -4 -7 -10 -11 -14 -10 -10 3 -90 -12 -101 -18 -11 -7 -32 -12 -52
-14 -7 -1 -13 -5 -13 -10 0 -4 -9 -8 -20 -8 -12 0 -34 -7 -50 -15 -17 -9 -30
-13 -30 -9 0 4 -6 2 -12 -3 -7 -6 -25 -13 -40 -17 -16 -3 -28 -11 -28 -16 0
-5 -9 -7 -20 -5 -10 2 -31 -6 -47 -18 -15 -12 -29 -21 -30 -19 -9 8 -23 0 -17
-10 4 -7 3 -8 -4 -4 -6 4 -31 -3 -54 -15 -24 -12 -44 -20 -45 -18 -1 2 -9 -5
-18 -16 -9 -11 -14 -14 -10 -8 5 11 -50 -12 -65 -27 -3 -3 -21 -13 -40 -23
-49 -24 -104 -58 -110 -67 -3 -4 -15 -10 -27 -14 -13 -4 -23 -12 -23 -17 0 -5
-6 -9 -13 -9 -7 0 -23 -9 -35 -20 -12 -11 -26 -20 -32 -20 -5 0 -10 -5 -10
-10 0 -6 -11 -15 -25 -20 -14 -5 -25 -14 -25 -20 0 -6 -4 -8 -10 -5 -5 3 -10
2 -10 -4 0 -5 -9 -13 -20 -16 -11 -4 -18 -11 -15 -16 4 -5 -1 -9 -10 -9 -8 0
-18 -7 -21 -15 -4 -8 -10 -13 -14 -10 -4 3 -11 -2 -14 -11 -3 -8 -10 -12 -16
-9 -5 3 -10 -2 -10 -11 0 -10 -3 -15 -6 -12 -3 4 -26 -13 -50 -37 -24 -24 -44
-42 -44 -40 0 2 -40 -36 -90 -86 -49 -49 -90 -94 -90 -100 0 -5 -4 -8 -8 -5
-5 3 -15 -6 -22 -19 -7 -14 -19 -25 -27 -25 -7 0 -13 -6 -13 -14 0 -8 -3 -16
-7 -18 -16 -6 -112 -125 -107 -131 3 -3 -4 -8 -15 -12 -12 -3 -19 -10 -17 -14
3 -4 -11 -24 -29 -44 -19 -21 -35 -41 -35 -45 -1 -9 -30 -50 -53 -74 -9 -10
-14 -18 -10 -18 5 0 3 -4 -4 -8 -6 -4 -13 -14 -15 -22 -2 -8 -12 -20 -23 -27
-13 -8 -15 -12 -6 -13 11 0 9 -4 -5 -15 -10 -8 -16 -15 -12 -15 4 0 -4 -12
-18 -27 -13 -14 -22 -28 -20 -31 3 -2 -2 -11 -10 -19 -8 -8 -12 -19 -9 -24 4
-5 -1 -9 -9 -9 -9 0 -15 -3 -14 -7 1 -5 -8 -27 -20 -49 -11 -23 -18 -45 -14
-49 4 -5 2 -5 -5 -2 -7 5 -19 -13 -34 -48 -12 -30 -26 -55 -29 -55 -4 0 -7 -6
-7 -12 0 -7 -14 -42 -31 -78 -33 -71 -47 -111 -44 -122 1 -5 -3 -8 -9 -8 -6 0
-9 -7 -5 -15 3 -8 2 -15 -3 -15 -5 0 -11 -14 -15 -30 -8 -40 -8 -41 -22 -69
-7 -13 -10 -30 -7 -39 4 -8 2 -13 -3 -9 -9 5 -11 -2 -16 -58 -1 -14 -5 -25 -8
-25 -3 0 -7 -14 -8 -31 -1 -17 -6 -39 -11 -48 -4 -9 -7 -26 -6 -38 1 -13 -2
-23 -6 -23 -4 0 -6 -13 -4 -30 2 -16 1 -30 -3 -30 -5 0 -8 -10 -9 -22 -1 -38
-11 -163 -13 -163 -1 0 -3 -12 -4 -27 -1 -16 2 -28 7 -28 4 0 3 -10 -4 -21 -8
-16 -8 -20 1 -14 9 6 9 3 2 -12 -7 -12 -7 -25 -1 -36 7 -12 6 -17 -1 -17 -6 0
-8 -5 -5 -10 4 -6 9 -36 11 -68 8 -100 9 -107 17 -119 5 -8 3 -13 -5 -13 -10
0 -10 -2 1 -9 8 -5 11 -16 8 -25 -3 -8 -2 -18 4 -22 6 -3 8 -12 5 -20 -3 -7
-1 -16 5 -20 6 -3 8 -12 5 -19 -2 -7 2 -22 10 -34 14 -19 13 -21 -3 -21 -10 0
-45 13 -78 29 -100 48 -158 73 -178 77 -10 2 -28 6 -40 10 -31 10 -157 12
-151 3 3 -5 -7 -11 -21 -15 -14 -3 -25 -10 -25 -16 0 -5 -5 -6 -10 -3 -6 3
-10 -3 -10 -14 0 -10 -5 -21 -11 -23 -5 -2 -12 -12 -14 -23 -2 -11 -4 -22 -6
-25 -7 -17 -4 -117 4 -127 6 -9 5 -13 -3 -13 -10 0 -10 -3 0 -15 7 -8 9 -15 4
-15 -5 0 -4 -4 1 -8 9 -6 33 -61 38 -87 1 -5 4 -12 7 -15 3 -3 17 -26 30 -52
14 -27 28 -48 32 -48 5 0 8 -6 8 -13 0 -7 9 -19 20 -27 11 -8 20 -20 20 -27 0
-7 7 -13 17 -13 9 0 14 -3 10 -6 -3 -3 9 -21 26 -39 18 -19 37 -40 43 -47 28
-32 93 -86 98 -80 3 3 6 -2 6 -11 0 -9 9 -21 21 -28 12 -6 35 -24 51 -40 17
-16 35 -26 41 -22 6 3 7 1 3 -5 -4 -7 -4 -12 1 -12 7 0 20 -10 91 -71 12 -10
22 -16 22 -11 0 4 4 2 8 -3 7 -10 66 -49 109 -73 13 -6 30 -12 38 -12 8 0 16
-7 16 -15 2 -23 3 -27 27 -77 12 -26 22 -52 22 -57 0 -6 4 -11 10 -11 5 0 7
-7 4 -15 -4 -8 -1 -15 5 -15 6 0 11 -7 11 -15 0 -8 11 -35 25 -60 14 -25 23
-45 20 -45 -4 0 1 -7 9 -16 9 -8 14 -20 11 -25 -4 -5 -2 -9 3 -9 5 0 19 -22
32 -50 13 -28 28 -50 33 -50 6 0 7 -3 4 -6 -3 -4 2 -18 13 -32 11 -13 17 -29
13 -35 -3 -6 -1 -7 5 -3 7 4 12 3 12 -3 0 -6 11 -27 25 -48 14 -21 31 -46 38
-57 6 -10 18 -24 25 -32 6 -7 12 -18 12 -24 0 -6 5 -8 10 -5 6 3 10 -1 10 -9
0 -9 5 -16 11 -16 5 0 8 -4 5 -8 -3 -5 3 -15 12 -23 9 -8 33 -35 52 -59 19
-24 74 -83 122 -131 48 -48 84 -90 80 -94 -4 -5 -2 -5 4 -2 12 7 54 -27 54
-44 0 -6 5 -7 10 -4 6 3 10 1 10 -5 0 -6 4 -9 9 -5 5 3 12 -4 16 -15 3 -11 11
-20 16 -20 10 0 24 -10 63 -47 13 -12 27 -19 30 -16 3 4 6 1 6 -5 0 -7 6 -12
13 -12 7 0 19 -9 27 -20 8 -11 23 -20 33 -20 10 0 15 -4 12 -10 -3 -5 1 -10 9
-10 9 0 16 -4 16 -10 0 -5 7 -10 15 -10 25 0 57 -39 50 -61 -4 -10 -12 -19
-18 -19 -7 0 -6 -4 3 -10 8 -5 10 -10 4 -10 -11 0 -14 -13 -15 -57 -1 -13 -6
-23 -13 -23 -6 0 -4 -5 4 -10 10 -7 11 -10 2 -10 -17 0 -10 -229 8 -240 9 -6
9 -9 -1 -13 -10 -4 -10 -6 -1 -6 6 -1 12 -12 12 -25 0 -14 5 -28 10 -31 6 -3
10 -15 10 -26 0 -10 5 -19 11 -19 5 0 7 -5 4 -10 -3 -6 1 -13 9 -16 9 -3 16
-15 16 -26 0 -10 4 -16 10 -13 5 3 10 2 10 -3 0 -16 74 -43 105 -38 51 6 85
18 85 28 0 5 4 7 8 4 5 -3 22 7 38 22 17 15 50 45 75 67 24 22 43 42 42 45 0
3 3 4 8 3 8 -3 13 12 10 30 -1 5 2 6 7 3 4 -2 21 11 37 30 32 38 129 91 163
89 12 -1 22 2 22 6 0 8 122 -21 130 -30 3 -4 15 -6 28 -5 12 1 22 -2 22 -6 0
-5 8 -7 18 -5 9 1 22 0 27 -4 6 -3 21 -7 35 -9 13 -2 29 -7 35 -12 6 -5 24
-11 40 -14 17 -2 30 -5 30 -6 0 -2 16 -6 55 -13 14 -3 25 -6 25 -8 0 -1 12 -2
27 -3 15 -1 30 -5 34 -9 13 -12 36 -8 28 6 -6 8 -3 8 9 -2 9 -7 23 -11 31 -8
7 3 19 0 25 -6 9 -9 14 -8 21 2 6 11 12 12 22 4 18 -15 473 -21 633 -8 39 3
93 8 120 9 28 2 50 5 50 6 0 1 10 3 22 4 14 2 25 -4 28 -13 10 -32 12 -81 4
-81 -5 0 -8 -3 -7 -8 7 -22 -58 -83 -87 -82 -3 0 -6 0 -7 -1 -2 -1 -14 -3 -28
-5 -65 -10 -90 -17 -90 -26 0 -5 -4 -7 -8 -4 -12 7 -107 -58 -105 -72 2 -7 -1
-12 -5 -12 -15 0 -34 -53 -37 -98 -2 -23 1 -42 7 -42 5 0 6 -4 3 -10 -3 -5 -1
-10 5 -10 6 0 8 -4 5 -10 -12 -20 132 -130 149 -113 3 4 6 0 6 -7 0 -7 3 -11
6 -7 3 3 18 1 33 -5 28 -11 69 -18 114 -20 15 -1 30 -5 33 -10 3 -4 10 -5 17
-1 6 4 34 8 62 9 89 3 159 15 167 27 5 8 8 8 8 -3 0 -10 3 -11 8 -4 4 6 15 10
24 8 10 -1 20 2 24 7 3 5 10 7 15 4 5 -4 9 -1 9 4 0 6 3 10 8 9 15 -4 92 26
92 35 0 6 3 7 7 4 3 -4 12 -2 20 4 7 6 13 8 13 3 0 -5 7 2 16 14 8 12 19 20
23 17 10 -6 111 101 103 109 -3 3 -1 6 5 6 5 0 10 6 11 13 0 6 3 23 7 37 9 32
13 142 6 155 -5 10 -7 20 -10 66 0 11 -5 18 -10 15 -4 -3 -8 2 -8 12 1 23 -33
134 -45 150 -6 6 -7 12 -3 12 4 0 2 6 -4 14 -8 10 -9 16 -1 21 5 3 10 3 10 -1
0 -4 9 1 20 11 11 10 20 15 20 11 0 -3 14 0 30 9 17 9 30 13 30 11 0 -4 40 10
95 34 38 16 60 23 68 22 4 -1 7 3 7 8 0 6 9 10 19 10 11 0 26 6 33 13 7 8 19
12 26 9 6 -2 12 1 12 7 0 6 3 10 8 9 10 -2 126 55 130 65 2 4 10 7 18 7 8 0
14 3 14 8 0 4 18 15 40 25 22 9 40 22 40 28 0 5 4 8 9 5 5 -3 20 5 35 19 14
13 26 21 26 17 0 -4 7 2 15 12 8 11 15 16 15 11 0 -5 10 1 23 12 12 11 30 23
40 26 11 4 15 12 11 19 -4 7 -4 10 1 6 8 -8 66 33 119 84 17 15 33 28 38 28 4
0 8 7 8 17 0 9 3 13 6 10 4 -4 31 18 60 47 29 30 55 52 58 48 3 -3 6 2 6 12 0
11 4 14 12 10 8 -5 9 -2 5 9 -3 10 -2 17 4 17 12 0 75 71 72 81 -2 4 6 11 17
14 11 4 20 13 20 21 0 8 7 17 15 20 8 4 15 12 15 20 0 8 4 14 9 14 5 0 13 9
16 20 4 11 11 18 16 15 5 -4 9 3 9 14 0 12 5 21 11 21 5 0 8 4 5 9 -3 5 1 11
9 15 8 3 15 12 15 20 0 7 7 16 15 20 8 3 15 14 15 24 0 10 8 27 18 38 18 19
29 41 30 58 0 5 4 12 9 15 4 3 20 28 34 55 22 40 35 52 72 66 25 10 48 15 51
12 4 -3 6 0 6 6 0 7 8 12 18 12 10 0 27 7 38 15 10 8 27 15 37 15 9 0 17 5 17
11 0 5 4 8 9 4 5 -3 12 -1 16 5 3 5 14 10 25 10 10 0 20 7 24 15 3 8 9 14 13
13 13 -4 93 42 93 53 0 6 5 7 10 4 6 -4 19 4 30 17 11 13 19 20 20 16 0 -7 41
27 96 79 19 18 36 33 39 33 3 0 5 3 4 6 0 3 11 14 26 25 14 12 23 25 19 30 -3
5 -2 8 3 7 4 -2 10 2 13 7 2 6 17 22 33 38 15 15 23 27 18 27 -6 0 1 12 15 27
13 14 22 28 20 31 -3 2 2 11 10 19 8 8 12 19 9 24 -4 5 -2 9 3 9 8 0 13 11 27
63 2 4 4 10 5 15 1 4 2 10 1 15 0 4 3 7 8 7 4 0 6 30 4 68 -5 93 -6 101 -15
96 -4 -3 -8 1 -8 8 -1 28 -110 105 -131 92 -5 -3 -9 -1 -9 4 0 8 -42 8 -147 0
-12 -1 -20 -5 -17 -9 6 -10 -33 -22 -45 -14 -6 3 -8 15 -5 28 3 12 7 33 10 47
3 14 7 32 9 40 2 8 4 15 5 15 2 0 12 87 13 120 1 17 9 36 17 43 9 8 9 11 2 7
-10 -5 -12 1 -7 27 3 18 7 53 9 78 1 25 5 51 9 57 4 6 3 15 -3 18 -8 5 -7 11
1 21 9 11 9 14 -1 14 -9 0 -9 4 -2 13 6 7 7 19 3 26 -5 7 -6 27 -2 45 8 40 7
58 -2 74 -5 7 -3 12 4 12 8 0 9 4 0 13 -8 10 -7 17 1 25 9 9 9 12 0 12 -14 0
-12 21 3 32 6 5 6 8 -1 8 -7 0 -12 20 -14 48 -1 26 -2 57 -3 70 0 12 -5 22 -9
22 -5 0 -4 9 2 20 8 15 8 20 -1 20 -6 0 -8 7 -5 17 4 9 1 20 -6 25 -11 6 -10
8 0 8 8 0 10 5 5 13 -4 6 -8 20 -9 30 -1 9 -3 18 -4 20 -1 1 -4 11 -5 22 -2
11 -6 34 -9 50 -3 17 -9 44 -12 60 -3 17 -7 35 -8 42 -1 7 -5 16 -9 19 -4 4
-7 18 -7 30 0 13 -4 25 -9 28 -4 3 -7 17 -6 31 2 14 -1 23 -5 20 -8 -5 -23 48
-20 69 1 5 -3 12 -8 15 -6 3 -12 15 -14 26 -1 11 -7 23 -11 26 -4 3 -9 16 -10
27 -1 12 -5 22 -9 22 -4 0 -8 6 -8 13 0 7 -9 32 -20 55 -11 22 -20 48 -20 56
0 8 -5 18 -10 21 -10 6 -40 69 -39 82 1 3 -3 9 -8 12 -11 8 -37 63 -35 74 1 4
-3 7 -9 7 -5 0 -7 5 -4 10 3 6 1 10 -4 10 -6 0 -11 7 -11 15 0 8 -4 15 -10 15
-5 0 -10 5 -10 12 0 21 -41 98 -53 98 -5 0 -8 3 -4 6 3 3 -5 24 -19 45 -13 21
-24 43 -24 49 0 5 -4 10 -10 10 -5 0 -10 7 -10 15 0 8 -5 15 -11 15 -5 0 -7 5
-4 10 3 6 1 10 -5 10 -6 0 -9 4 -6 8 3 5 -4 14 -14 22 -10 8 -17 17 -14 22 3
4 -2 11 -10 14 -9 3 -16 12 -16 19 0 6 -12 25 -27 41 -15 16 -26 31 -25 34 1
3 -5 13 -13 23 -8 9 -15 20 -15 23 0 3 -13 19 -30 37 -16 18 -30 36 -30 40 0
5 -14 22 -31 38 -17 16 -28 29 -24 29 5 0 -4 11 -19 25 -14 13 -26 29 -26 35
0 6 -4 8 -10 5 -5 -3 -10 -1 -10 4 0 6 -20 32 -45 58 -25 25 -45 50 -45 55 0
4 -4 8 -8 8 -5 0 -43 33 -85 73 -42 39 -91 83 -109 97 -18 14 -46 37 -61 52
-16 15 -37 30 -47 33 -10 3 -21 12 -24 20 -3 8 -12 15 -21 15 -8 0 -15 5 -15
11 0 5 -4 7 -10 4 -5 -3 -10 -1 -10 5 0 6 -11 15 -25 20 -14 5 -25 14 -25 20
0 5 -7 10 -15 10 -8 0 -15 5 -15 11 0 5 -4 7 -10 4 -5 -3 -10 -2 -10 4 0 6
-15 17 -34 26 -18 9 -42 24 -53 33 -10 9 -25 18 -33 20 -8 2 -23 11 -32 19
-10 9 -18 13 -18 9 0 -4 -10 2 -22 14 -12 11 -30 20 -40 20 -10 0 -18 5 -18
10 0 6 -9 10 -20 10 -11 0 -20 3 -20 8 0 4 -20 15 -45 25 -25 11 -45 23 -45
28 0 5 -3 8 -7 7 -16 -3 -63 14 -73 27 -6 8 -18 11 -26 8 -8 -3 -14 1 -14 8 0
7 -3 9 -7 6 -3 -4 -17 0 -30 8 -13 9 -23 13 -23 9 0 -4 -7 -1 -15 6 -8 6 -20
8 -26 4 -8 -5 -9 -3 -4 6 6 10 4 12 -8 7 -9 -3 -28 3 -43 16 -16 12 -24 15
-19 7 7 -12 6 -13 -6 -4 -8 6 -22 10 -31 9 -10 -2 -16 2 -15 8 1 7 -6 11 -16
9 -10 -2 -24 1 -31 7 -7 6 -28 12 -47 13 -19 2 -37 6 -40 10 -3 5 -17 9 -32
10 -15 1 -27 5 -27 9 0 4 -11 6 -25 4 -14 -1 -25 2 -25 7 0 5 -6 8 -12 5 -7
-2 -24 0 -36 5 -13 4 -41 9 -63 10 -21 1 -39 4 -39 8 0 4 -10 6 -22 6 -13 -1
-27 0 -33 3 -5 3 -23 6 -40 7 -16 1 -57 5 -90 9 -33 4 -101 8 -151 9 -49 1
-95 6 -102 10 -7 4 -12 3 -12 -2 0 -10 -39 -10 -56 1 -6 3 -14 3 -18 0z m1394
-443 c8 -5 11 -10 5 -10 -5 0 -17 5 -25 10 -8 5 -10 10 -5 10 6 0 17 -5 25
-10z m75 -47 c4 -11 0 -11 -18 -2 -31 16 -32 18 -8 16 11 -1 23 -7 26 -14z
m-1376 -2184 c7 5 25 7 39 5 15 -2 60 -4 100 -6 42 -1 72 -7 72 -13 0 -5 4 -4
9 4 5 8 11 9 15 3 3 -6 17 -9 31 -7 14 1 25 -3 25 -9 0 -6 5 -4 10 4 8 12 10
12 11 -5 0 -11 3 -15 5 -8 6 13 56 0 83 -21 12 -8 13 -8 7 2 -6 11 -4 11 10 3
27 -14 58 -24 67 -23 4 1 7 -2 7 -7 0 -9 41 -27 48 -22 2 1 12 -7 21 -18 10
-12 24 -21 30 -21 7 0 9 -4 6 -10 -3 -5 1 -10 9 -10 9 0 16 -4 16 -8 0 -5 11
-15 25 -22 14 -7 23 -16 20 -18 -3 -3 1 -12 9 -21 8 -9 16 -23 18 -31 2 -8 6
-18 11 -21 10 -8 18 -49 9 -49 -4 0 -8 -8 -9 -17 0 -10 -4 -29 -7 -42 -3 -14
-1 -30 4 -36 21 -26 1 -41 -53 -40 -29 1 -62 -2 -74 -7 -15 -5 -23 -4 -23 3 0
8 -4 8 -12 1 -7 -5 -29 -13 -50 -16 -69 -11 -206 -75 -191 -89 6 -6 -11 -11
-30 -8 -4 0 -6 -2 -6 -6 3 -20 -2 -34 -11 -28 -5 3 -10 -1 -10 -9 0 -9 -4 -16
-8 -16 -4 0 -8 -13 -7 -30 0 -26 4 -30 27 -30 16 0 28 6 29 13 0 6 4 3 9 -8 5
-13 4 -24 -5 -30 -13 -11 -26 -77 -13 -69 4 3 8 0 8 -6 0 -6 5 -8 10 -5 12 7
13 -5 2 -20 -7 -10 -27 -17 -49 -18 -7 0 -13 -3 -13 -7 0 -6 -12 -8 -70 -11
-16 -1 -27 -6 -24 -11 4 -6 -51 -11 -82 -7 -4 0 -11 -5 -15 -13 -6 -9 -9 -10
-9 -1 0 8 -7 10 -22 5 -13 -4 -34 -7 -48 -7 -14 1 -28 -3 -31 -8 -4 -5 -12 -6
-19 -2 -19 12 -80 12 -80 0 0 -5 -5 -4 -12 3 -16 16 -31 15 -22 0 6 -10 4 -10
-7 -2 -8 6 -27 11 -44 12 -28 2 -64 8 -75 12 -3 1 -9 2 -14 1 -11 -2 -93 27
-126 44 -14 7 -29 13 -33 13 -15 1 -67 27 -67 34 0 5 -7 8 -15 8 -8 0 -15 5
-15 11 0 5 -4 8 -9 5 -5 -3 -12 1 -15 10 -3 8 -9 13 -13 11 -5 -2 -28 15 -52
39 l-43 44 70 0 c39 0 73 -4 77 -10 3 -5 12 -7 20 -4 17 7 82 -23 115 -53 14
-13 28 -23 33 -23 4 0 6 -4 2 -9 -3 -5 2 -16 10 -24 8 -9 15 -20 15 -25 0 -20
45 -18 65 3 26 27 29 43 12 69 -7 11 -17 30 -20 40 -6 16 -5 17 7 7 8 -7 25
-11 38 -9 31 4 36 46 8 77 -11 13 -20 28 -20 33 0 4 -5 8 -11 8 -7 0 -19 8
-28 18 -19 20 -81 56 -81 46 0 -3 -6 -1 -14 5 -8 6 -27 13 -44 14 -16 1 -28 6
-24 11 3 5 -2 7 -11 3 -9 -3 -19 -2 -22 2 -3 5 -14 7 -25 4 -11 -3 -20 0 -20
6 0 7 -8 8 -25 1 -14 -5 -25 -6 -25 -2 0 10 -113 7 -129 -2 -6 -4 -11 -2 -11
5 0 8 -4 8 -15 -1 -8 -7 -15 -10 -15 -6 0 3 -10 2 -23 -3 -15 -6 -26 -4 -35 5
-7 7 -11 15 -10 16 6 7 -26 88 -35 88 -5 0 -4 7 3 15 7 8 9 15 5 15 -4 0 21
27 56 60 35 33 67 60 71 60 4 0 16 10 28 22 11 12 20 18 20 14 0 -5 16 4 35
18 19 15 35 24 35 21 0 -3 20 6 45 19 25 14 45 23 45 20 0 -4 6 -2 13 3 6 6
39 18 72 28 33 10 65 22 71 27 6 4 13 6 15 3 3 -2 21 0 40 5 34 9 101 20 150
25 15 1 32 6 39 10 9 6 11 4 5 -5 -6 -10 -4 -11 6 -4 8 5 33 9 56 9 23 1 45 4
49 8 4 4 12 3 18 -3 7 -5 17 -5 25 -1z m-3292 -515 c-3 -3 -12 -4 -19 -1 -8 3
-5 6 6 6 11 1 17 -2 13 -5z m87 -32 c3 -5 -1 -9 -9 -9 -8 0 -12 4 -9 9 3 4 7
8 9 8 2 0 6 -4 9 -8z m71 -50 c-3 -3 -11 0 -18 7 -9 10 -8 11 6 5 10 -3 15 -9
12 -12z m3674 -82 c-9 -5 -30 -22 -46 -37 -17 -16 -48 -37 -69 -48 -21 -11
-42 -24 -46 -30 -5 -6 -8 -4 -8 5 1 20 25 52 33 43 4 -3 7 0 7 8 0 18 82 64
119 67 21 1 23 0 10 -8z m-2991 -695 c-3 -3 -9 2 -12 12 -6 14 -5 15 5 6 7 -7
10 -15 7 -18z m19 -22 c-4 -3 1 -15 10 -26 10 -10 17 -21 16 -23 -7 -11 -2
-44 6 -40 5 4 8 -5 6 -19 -1 -14 2 -28 6 -31 5 -3 9 -14 9 -25 0 -11 -4 -18
-10 -14 -5 3 -7 12 -4 19 3 7 -2 19 -10 26 -9 7 -13 16 -11 21 3 4 -1 24 -9
44 -8 19 -12 35 -9 35 3 0 0 6 -6 13 -10 12 -6 27 7 27 3 0 2 -3 -1 -7z"/>
</g>
</svg>
